<?xml version="1.0" encoding="iso-8859-1"?>
<!-- Generator: Adobe Illustrator 19.0.0, SVG Export Plug-In . SVG Version: 6.00 Build 0)  -->
<svg version="1.1" id="Layer_1" xmlns="http://www.w3.org/2000/svg" xmlns:xlink="http://www.w3.org/1999/xlink" x="0px" y="0px"
	 viewBox="0 0 496 496" style="enable-background:new 0 0 496 496;" xml:space="preserve">
<path style="fill:#E20544;" d="M484.8,370.4c0,16.8-13.6,30.4-30.4,30.4H41.6c-16.8,0-30.4-13.6-30.4-30.4V125.6
	c0-16.8,13.6-30.4,30.4-30.4h412.8c16.8,0,30.4,13.6,30.4,30.4V370.4z"/>
<g>
	<path style="fill:#C40041;" d="M11.2,125.6c0-16.8,13.6-30.4,30.4-30.4h412.8c16.8,0,30.4,13.6,30.4,30.4v244.8
		c0,16.8-13.6,30.4-30.4,30.4"/>
	<path style="fill:#C40041;" d="M454.4,84H41.6C18.4,84,0,102.4,0,125.6v244.8C0,393.6,18.4,412,41.6,412h412.8
		c23.2,0,41.6-18.4,41.6-41.6V125.6C496,102.4,477.6,84,454.4,84z M473.6,370.4c0,10.4-8.8,19.2-19.2,19.2H41.6
		c-10.4,0-19.2-8.8-19.2-19.2V125.6c0-10.4,8.8-19.2,19.2-19.2h412.8c10.4,0,19.2,8.8,19.2,19.2V370.4z"/>
	<path style="fill:#C40041;" d="M169.6,288.8c-2.4-9.6-6.4-17.6-11.2-23.2c10.4-8,16.8-19.2,16.8-32.8c0-12-4.8-22.4-12.8-29.6
		c-9.6-8.8-22.4-12-41.6-12c-12,0-24,0.8-32.8,2.4c-4,0.8-6.4,4-6.4,7.2v124c0,4,3.2,8,8,8h16c4,0,8-3.2,8-8v-46.4h7.2
		c9.6,0,14.4,3.2,17.6,18.4c4,19.2,7.2,28,9.6,32c1.6,2.4,4,4,6.4,4h16.8c2.4,0,5.6-1.6,6.4-4c1.6-2.4,1.6-5.6,0-8
		C176,316.8,172,300.8,169.6,288.8z M143.2,234.4c0,10.4-8,16-20.8,16h-8.8v-31.2c2.4,0,4.8,0,8,0
		C143.2,219.2,143.2,230.4,143.2,234.4z"/>
	<path style="fill:#C40041;" d="M279.2,304H232v-29.6h40.8c4,0,8-3.2,8-8v-13.6c0-4-3.2-8-8-8H232v-24h44c4,0,8-3.2,8-8V200
		c0-4-3.2-8-8-8h-68c-4,0-8,3.2-8,8v125.6c0,4,3.2,8,8,8h70.4c4,0,8-3.2,8-8V312C286.4,307.2,283.2,304,279.2,304z"/>
	<path style="fill:#C40041;" d="M410.4,306.4c-0.8-2.4-2.4-4-4-4.8c-2.4-0.8-4.8-0.8-6.4,0c-5.6,2.4-14.4,4.8-23.2,4.8
		c-25.6,0-40.8-15.2-40.8-42.4c0-27.2,15.2-44,40.8-44c11.2,0,18.4,2.4,21.6,4.8c2.4,0.8,4.8,0.8,6.4,0c2.4-0.8,4-2.4,4-4.8l4-13.6
		c0.8-3.2-0.8-7.2-4-8.8c-4-1.6-14.4-6.4-33.6-6.4c-43.2,0-73.6,30.4-73.6,73.6s27.2,71.2,69.6,71.2c14.4,0,28-2.4,36.8-6.4
		c3.2-1.6,4.8-5.6,4-8.8L410.4,306.4z"/>
</g>
<g>
	<path style="fill:#FFFFFF;" d="M169.6,274.4c-2.4-9.6-6.4-17.6-11.2-23.2c10.4-8,16.8-19.2,16.8-32.8c0-12-4.8-22.4-12.8-29.6
		c-9.6-8.8-22.4-12-41.6-12c-12,0-24,0.8-32.8,2.4c-4,0.8-6.4,4-6.4,7.2v124c0,4,3.2,8,8,8h16c4,0,8-3.2,8-8V264h7.2
		c9.6,0,14.4,3.2,17.6,18.4c4,19.2,7.2,28,9.6,32c1.6,2.4,4,4,6.4,4h16.8c2.4,0,5.6-1.6,6.4-4c1.6-2.4,1.6-5.6,0-8
		C176,302.4,172,286.4,169.6,274.4z M143.2,220c0,10.4-8,16-20.8,16h-8.8v-31.2c2.4,0,4.8,0,8,0C143.2,204.8,143.2,216,143.2,220z"
		/>
	<path style="fill:#FFFFFF;" d="M279.2,289.6H232V260h40.8c4,0,8-3.2,8-8v-13.6c0-4-3.2-8-8-8H232v-24h44c4,0,8-3.2,8-8v-13.6
		c0-4-3.2-8-8-8h-68c-4,0-8,3.2-8,8v125.6c0,4,3.2,8,8,8h70.4c4,0,8-3.2,8-8v-13.6C286.4,292.8,283.2,289.6,279.2,289.6z"/>
	<path style="fill:#FFFFFF;" d="M410.4,292c-0.8-2.4-2.4-4-4-4.8c-2.4-0.8-4.8-0.8-6.4,0c-5.6,2.4-14.4,4.8-23.2,4.8
		c-25.6,0-40.8-15.2-40.8-42.4s15.2-44,40.8-44c11.2,0,18.4,2.4,21.6,4.8c2.4,0.8,4.8,0.8,6.4,0c2.4-0.8,4-2.4,4-4.8l4-13.6
		c0.8-3.2-0.8-7.2-4-8.8c-4-1.6-14.4-6.4-33.6-6.4c-43.2,0-73.6,30.4-73.6,73.6s27.2,71.2,69.6,71.2c14.4,0,28-2.4,36.8-6.4
		c3.2-1.6,4.8-5.6,4-8.8L410.4,292z"/>
</g>
<g>
</g>
<g>
</g>
<g>
</g>
<g>
</g>
<g>
</g>
<g>
</g>
<g>
</g>
<g>
</g>
<g>
</g>
<g>
</g>
<g>
</g>
<g>
</g>
<g>
</g>
<g>
</g>
<g>
</g>
</svg>
